<svg width="64" height="64" viewBox="0 0 64 64" fill="none" xmlns="http://www.w3.org/2000/svg">
<path d="M58.1824 13.5944C58.1824 21.1024 50.1772 40.7832 48.0005 27.1888C45.8239 13.5944 37.8186 21.1024 37.8186 13.5944C37.8186 6.08641 42.3772 0 48.0005 0C53.6238 0 58.1824 6.08641 58.1824 13.5944Z" fill="#FF6B00"/>
<path d="M12.5132 5.06514C19.3286 5.13239 37.1261 10.2787 24.7672 11.5083C12.4083 12.7379 19.1558 17.7752 12.3404 17.7079C5.52498 17.6407 0.0386877 14.756 0.0864114 11.2648C0.134135 7.77355 5.6978 4.99789 12.5132 5.06514Z" fill="#01797A"/>
<path d="M51.4874 62.2399C44.672 62.1729 26.8743 57.0273 39.2331 55.7972C51.5919 54.5671 44.8442 49.5301 51.6596 49.5971C58.475 49.6641 63.9615 52.5486 63.9139 56.0398C63.8664 59.531 58.3029 62.3069 51.4874 62.2399Z" fill="#01797A"/>
<path d="M2.9191 50.3948C2.9246 42.8869 10.9443 23.2103 13.111 36.8058C15.2777 50.4014 23.2884 42.8976 23.2829 50.4056C23.2774 57.9136 18.7144 63.9976 13.091 63.9946C7.46773 63.9916 2.91359 57.9028 2.9191 50.3948Z" fill="#FF6B00"/>
<ellipse cx="31" cy="33.5" rx="8" ry="6.5" fill="#F3F0D7"/>
<ellipse cx="21.8184" cy="16.0661" rx="4.36368" ry="3.70756" fill="#004059"/>
<ellipse cx="42.1823" cy="50.67" rx="4.36368" ry="3.70756" fill="#004059"/>
<circle cx="28" cy="33" r="1" fill="#004059"/>
<circle cx="31" cy="33" r="1" fill="#004059"/>
<circle cx="34" cy="33" r="1" fill="#004059"/>
</svg>
